<svg xmlns="http://www.w3.org/2000/svg" width="62.536" height="58.367" viewBox="0 0 62.536 58.367"><g opacity="0.5"><g transform="translate(0 0)"><path d="M837.578,732.3a12.507,12.507,0,1,0,12.507,12.507A12.507,12.507,0,0,0,837.578,732.3Z" transform="translate(-806.31 -727.089)" fill="#fff"/><path d="M863.206,737.335a12.156,12.156,0,0,0-3.487.511,17.607,17.607,0,0,0-30.549,0,12.136,12.136,0,0,0-3.486-.511,12.613,12.613,0,0,0-12.507,12.642,24.148,24.148,0,0,0,3.8,12.855c.082.137.163.259.249.388l.06.091a31.636,31.636,0,0,0,7.358,7.911v5.718h-2.084a1.043,1.043,0,0,0,0,2.085h6.254a1.043,1.043,0,0,0,0-2.085h-2.085v-5.718a31.509,31.509,0,0,0,5.68-5.582c.046.068.087.139.133.208l.085.128A45.227,45.227,0,0,0,843.4,777.482v7.8h-3.126a1.043,1.043,0,1,0,0,2.085h8.338a1.043,1.043,0,0,0,0-2.085h-3.126v-7.8a45.211,45.211,0,0,0,10.773-11.5l.09-.136c.049-.071.087-.136.133-.208a31.517,31.517,0,0,0,5.68,5.584v5.718h-2.085a1.043,1.043,0,0,0,0,2.085h6.254a1.043,1.043,0,0,0,0-2.085h-2.085v-5.718a31.55,31.55,0,0,0,7.352-7.9l.068-.1c.087-.129.167-.251.241-.374a24.179,24.179,0,0,0,3.8-12.866,12.654,12.654,0,0,0-1.1-5.185,12.513,12.513,0,0,0-11.406-7.458Zm-37.522,32.06a30.041,30.041,0,0,1-6.656-7.226l-.073-.1c-.068-.1-.131-.192-.2-.312a22.1,22.1,0,0,1-3.491-11.775,10.579,10.579,0,0,1,.921-4.339,10.426,10.426,0,0,1,9.5-6.218,10.075,10.075,0,0,1,2.53.323,17.418,17.418,0,0,0-.721,1.986,8.132,8.132,0,0,0-1.882-.226,8.339,8.339,0,0,0,0,16.677,8.186,8.186,0,0,0,2.932-.557,36.708,36.708,0,0,0,2.721,6.074A30.3,30.3,0,0,1,825.684,769.395Zm28.935-4.705-.1.151a44.031,44.031,0,0,1-10.07,10.816,44.068,44.068,0,0,1-10.078-10.824l-.1-.144c-.1-.147-.2-.29-.3-.479a32.536,32.536,0,0,1-5.155-17.334,15.633,15.633,0,0,1,31.266,0,32.58,32.58,0,0,1-5.174,17.365c-.09.158-.188.3-.285.448Zm15.508-2.927c-.061.1-.125.2-.192.3l-.079.119a29.979,29.979,0,0,1-6.65,7.218,30.166,30.166,0,0,1-5.579-5.7,37.052,37.052,0,0,0,2.7-6.022,8.331,8.331,0,1,0,2.8-16.173,8.178,8.178,0,0,0-1.741.2,17.151,17.151,0,0,0-.715-1.958,10.074,10.074,0,0,1,2.53-.323,10.43,10.43,0,0,1,9.5,6.219,10.594,10.594,0,0,1,.92,4.338,22.118,22.118,0,0,1-3.5,11.784Z" transform="translate(-813.177 -728.997)" fill="#fff"/></g></g></svg>