<svg xmlns="http://www.w3.org/2000/svg" width="68.048" height="58.363" viewBox="0 0 68.048 58.363"><g opacity="0.5"><path d="M866.26,693.034a30.293,30.293,0,0,1-4.241-1.082c-9.829-3.305-15.385-11.337-17.213-21.675a.9.9,0,0,0-1.76,0c-2.125,12.013-9.2,20.509-21.392,22.773a.894.894,0,0,0,0,1.756c12.085,2.235,19.279,10.715,21.4,22.633a.894.894,0,0,0,1.76,0c1.078-6.145,4.105-14.5,12.4-19.37a27.69,27.69,0,0,1,9.047-3.274.894.894,0,0,0,0-1.759Z" transform="translate(-798.946 -667.496)" fill="#fff"/><g transform="translate(21.981 2.046)"><path d="M866.26,693.034a30.293,30.293,0,0,1-4.241-1.082c-9.829-3.305-15.385-11.337-17.213-21.675a.9.9,0,0,0-1.76,0c-2.125,12.013-9.2,20.509-21.392,22.773a.894.894,0,0,0,0,1.756c12.085,2.235,19.279,10.715,21.4,22.633a.894.894,0,0,0,1.76,0c1.078-6.145,4.105-14.5,12.4-19.37a27.69,27.69,0,0,1,9.047-3.274.894.894,0,0,0,0-1.759Z" transform="translate(-820.927 -669.543)" fill="#fff"/></g><path d="M829.471,706.689a10.612,10.612,0,0,1-6.9-7.326.893.893,0,0,0-1.706,0,10.746,10.746,0,0,1-6.9,7.322.9.9,0,0,0,0,1.691,10.742,10.742,0,0,1,6.9,7.326.893.893,0,0,0,1.706,0,10.96,10.96,0,0,1,4.241-6.01h0c2.193-1.5,3.268-1.066,3.267-2.154A.894.894,0,0,0,829.471,706.689Z" transform="translate(-801.412 -657.968)" fill="#fff"/><path d="M820.456,675.955a10.615,10.615,0,0,1-6.9-7.326.893.893,0,0,0-1.706,0,10.745,10.745,0,0,1-6.9,7.322.9.9,0,0,0,0,1.691,10.741,10.741,0,0,1,6.9,7.326.894.894,0,0,0,1.707,0,10.7,10.7,0,0,1,4.24-6.01c2.186-1.5,3.267-1.072,3.266-2.154A.892.892,0,0,0,820.456,675.955Z" transform="translate(-804.355 -668)" fill="#fff"/></g></svg>