<svg xmlns="http://www.w3.org/2000/svg" viewBox="0 0 1280 294.4"><defs><style>.cls-1{fill:#b8e6d0;}</style></defs><title>Layer 4 (Bottom)</title><g id="Layer_2" data-name="Layer 2"><g id="Layer_1-2" data-name="Layer 1"><path class="cls-1" d="M1280,53.29a88.54,88.54,0,0,0-30.38,6l-2.28-10.7a.67.67,0,0,0-1.31,0l-2.88,13.54A106.85,106.85,0,0,0,1230,69.63L1226.45,53a.68.68,0,0,0-.8-.51.67.67,0,0,0-.5.51L1220,77c-25.29,20.26-45.66,48.55-74.19,64.58-19.21,10.79-40.5,15.18-62.35,15.18-30.39,0-61.85-8.49-90.24-20-48.82-19.85-95-48.19-147-56.8a111.16,111.16,0,0,0-18.13-1.5c-54.11,0-96,39.85-152.43,52.57a205.48,205.48,0,0,1-44.92,4.58c-55.43,0-118.67-17.73-161.83-42.82-12.26-7.13-23.76-16.11-35-25.65L431,53a.67.67,0,0,0-.8-.51.7.7,0,0,0-.51.51l-1.86,8.75c-4.66-4.07-9.28-8.2-13.9-12.29L410,31a.68.68,0,0,0-.8-.51.7.7,0,0,0-.51.51l-2.17,10.18L402.3,21.47a.66.66,0,0,0-1.3,0l-3,14.18q-4.22-3.52-8.49-6.86L384.41,5a.67.67,0,0,0-.8-.51.7.7,0,0,0-.51.51l-3.51,16.48c-1.39-1-2.8-1.92-4.2-2.84L372.48,5a.66.66,0,0,0-.79-.51.65.65,0,0,0-.51.51L369.1,14.7C354.05,5.8,338,0,320.09,0h0l-2.27,0c-17.33.47-32.69,6.29-46.6,15.41L270.7,13a.66.66,0,0,0-1.3,0l-.92,4.28q-3.68,2.57-7.22,5.41L258.77,11a.66.66,0,0,0-1.3,0l-3.9,18.3c-3.45,3.15-6.8,6.48-10.08,9.94L240.88,27a.66.66,0,0,0-.79-.51.64.64,0,0,0-.51.51l-4.64,21.77q-2,2.34-4,4.72L229,44a.66.66,0,0,0-.79-.51.64.64,0,0,0-.51.51l-4,18.63c-9.51,12.25-18.45,25-27.18,37A584.25,584.25,0,0,1,0,270.82V294.4H1280Z"/></g></g></svg>