<svg xmlns="http://www.w3.org/2000/svg" viewBox="0 0 1280 390.15"><defs><style>.cls-1{fill:#4ec089;}</style></defs><title>Layer 2</title><g id="Layer_2" data-name="Layer 2"><g id="Layer_1-2" data-name="Layer 1"><path class="cls-1" d="M1232.65,186.08c-9.19-2-18.46-3.76-27.76-5.5l-3.3-15.51a.67.67,0,0,0-.81-.49.66.66,0,0,0-.49.49l-3,14.1c-25.31-4.63-50.82-8.84-76-13.93l-11-51.77a.67.67,0,0,0-.81-.49.68.68,0,0,0-.49.49l-10,47c-2.09-.48-4.18-1-6.27-1.48l-6.42-30.14a.67.67,0,0,0-.81-.49.68.68,0,0,0-.49.49l-5.71,26.77q-5.68-1.5-11.33-3.12l-4-18.88a.68.68,0,0,0-.81-.49.66.66,0,0,0-.48.49l-3.47,16.26c-2.37-.72-4.72-1.48-7.07-2.25l-8-37.66a.67.67,0,0,0-.81-.48.64.64,0,0,0-.48.48l-6.83,32c-1.45-.55-2.88-1.11-4.32-1.68l-4.68-21.95a.67.67,0,0,0-1.3,0l-3.83,18q-6.91-2.94-13.7-6.23l-8-37.56a.67.67,0,0,0-1.3,0L992.47,122q-3.88-2.17-7.72-4.48c-19.33-11.65-37.35-25.82-55.32-39.94L919,28.49a.67.67,0,0,0-.81-.48.65.65,0,0,0-.48.48l-7.3,34.23-4.31-3.25L903.19,46a.67.67,0,0,0-1.29,0L900,55c-23.14-16.86-47.27-31.42-75-38.49C790.81,7.74,756.3,11.7,723,23L718.21.51A.67.67,0,0,0,717.4,0a.68.68,0,0,0-.49.49L711.2,27.3q-9,3.54-17.91,7.72l-1.92-9a.66.66,0,0,0-1.29,0l-2.51,11.75Q682.24,40.4,677,43.2l-6.12-28.7a.67.67,0,0,0-1.3,0l-8,37.35A561.36,561.36,0,0,0,611.18,85.8c-24.11,18-49.36,39.38-76.08,58.59l-6.84-32.08a.67.67,0,0,0-1.3,0l-9.42,44.2c-16.14,10.63-32.81,20.1-50.08,27.31l-8.54-40a.66.66,0,0,0-1.29,0L447.57,191q-3.4,1-6.84,1.91l-3.81-17.84a.66.66,0,0,0-1.29,0l-4.27,20q-6.44,1.29-13,2l-2.46-11.53a.66.66,0,0,0-1.29,0L412,197.67a146.22,146.22,0,0,1-29.2-.76,160.21,160.21,0,0,1-17.7-3.39l-8.41-39.46a.67.67,0,0,0-.81-.49.68.68,0,0,0-.49.49L348,188.94l-7.29-2-10.81-50.73a.67.67,0,0,0-1.3,0l-9.7,45.52c-13.54-2.5-27.08-3.16-40.52.67-33,9.4-59.68,39.58-95.77,38.3a86.74,86.74,0,0,1-19.31-2.95L151,160.15a.67.67,0,0,0-.81-.49.68.68,0,0,0-.49.49L139.52,208q-5-2.73-9.63-5.93l-5.71-26.8a.67.67,0,0,0-.81-.49.68.68,0,0,0-.49.49L119,193.74a191.47,191.47,0,0,1-28.6-30.84L79,109.65a.66.66,0,0,0-1.29,0L72,136.33C56.76,112.62,42.72,88,24.55,66.5A181.29,181.29,0,0,0,0,42.28V390.15H1280v-192C1264.26,193.38,1248.35,189.42,1232.65,186.08Z"/></g></g></svg>