<svg xmlns="http://www.w3.org/2000/svg" width="59.572" height="58.989" viewBox="0 0 59.572 58.989"><g opacity="0.5"><path d="M733.2,787.821a1.2,1.2,0,0,1-1.076-1.726l22.6-46.143a1.2,1.2,0,0,1,2.151,0l14.389,29.379,4.647-8.888a1.2,1.2,0,0,1,2.125,0l13.4,25.621a1.2,1.2,0,0,1-1.061,1.754Zm21.827-34.068a1.309,1.309,0,0,1,.267.028,1.214,1.214,0,0,1,.785.6l4.279,7.862,3.057-3.485L755.8,743.2l-6.323,12.911-.98,1.934,1.841-1.207,3.992-2.865A1.2,1.2,0,0,1,755.026,753.753Z" transform="translate(-732 -728.833)" fill="#fff"/><path d="M762.51,746.448a4.757,4.757,0,1,1,4.757-4.757A4.763,4.763,0,0,1,762.51,746.448Z" transform="translate(-714.81 -730.399)" fill="#fff"/><path d="M754.451,740.652a.618.618,0,0,1,0-1.236h1.424a.618.618,0,0,1,0,1.236Z" transform="translate(-717.426 -728.742)" fill="#fff"/><path d="M760.854,735.673a.618.618,0,0,1-.619-.617v-1.424a.618.618,0,0,1,1.236,0v1.424A.617.617,0,0,1,760.854,735.673Z" transform="translate(-713.154 -733.015)" fill="#fff"/><path d="M766.4,740.652a.618.618,0,0,1,0-1.236h1.426a.618.618,0,0,1,0,1.236Z" transform="translate(-709.45 -728.742)" fill="#fff"/><path d="M760.854,747.624a.619.619,0,0,1-.619-.617v-1.426a.618.618,0,0,1,1.236,0v1.426A.618.618,0,0,1,760.854,747.624Z" transform="translate(-713.154 -725.039)" fill="#fff"/><path d="M756.326,745.582a.6.6,0,0,1-.437-.182.616.616,0,0,1,0-.872l1.006-1.007a.614.614,0,0,1,.872,0,.62.62,0,0,1,.182.437.627.627,0,0,1-.182.439l-1.007,1.005A.606.606,0,0,1,756.326,745.582Z" transform="translate(-716.175 -726.124)" fill="#fff"/><path d="M757.333,737.131a.6.6,0,0,1-.437-.182l-1.005-1.006a.615.615,0,0,1-.182-.433.618.618,0,0,1,.617-.619.615.615,0,0,1,.439.182l1.005,1a.621.621,0,0,1,0,.875A.612.612,0,0,1,757.333,737.131Z" transform="translate(-716.175 -731.763)" fill="#fff"/><path d="M764.777,737.131a.6.6,0,0,1-.437-.182.61.61,0,0,1-.182-.435.627.627,0,0,1,.182-.437l1.005-1.005a.618.618,0,1,1,.874.874l-1.007,1.007A.6.6,0,0,1,764.777,737.131Z" transform="translate(-710.535 -731.763)" fill="#fff"/><path d="M765.784,745.582a.608.608,0,0,1-.439-.182l-1-1.007a.615.615,0,0,1-.183-.435.627.627,0,0,1,.182-.437.612.612,0,0,1,.87,0l1.011,1.007a.621.621,0,0,1,0,.874A.611.611,0,0,1,765.784,745.582Z" transform="translate(-710.535 -726.124)" fill="#fff"/></g></svg>