<svg xmlns="http://www.w3.org/2000/svg" width="62.337" height="37.085" viewBox="0 0 62.337 37.085"><g opacity="0.5"><path d="M728.572,690.653c2.695,0,4.935-.062,7.17.018a9.493,9.493,0,0,0,5.121-1.246,37.857,37.857,0,0,1,17.363-4.4,39.077,39.077,0,0,1,21.527,5.192,3.871,3.871,0,0,0,1.826.4c2.383.045,4.769.012,7.152.025.615,0,1.231.062,2.123.11-.863,1.674-1.6,3.089-2.324,4.515a2.98,2.98,0,0,0,.177,3.1,15.7,15.7,0,0,1-24.861,18.845,5.163,5.163,0,0,1-.551-1.018l-3.511,5.03-3.372-4.7a16.988,16.988,0,0,1-7.766,4.917,15.7,15.7,0,0,1-19.9-14.892,14.049,14.049,0,0,1,1.974-7.817,3.609,3.609,0,0,0,.081-4.049C730.164,693.509,729.513,692.351,728.572,690.653Zm15.846,3.692a11.778,11.778,0,0,0-11.946,11.91c-.13,7.354,6.421,12.1,12.053,12.041,6.223-.063,12.1-5.529,11.871-12.238A11.855,11.855,0,0,0,744.419,694.346Zm30.922.081c-6.678-.363-12.042,5.487-12.138,11.712-.1,6.619,5.557,12.293,11.919,12.152,6.818-.151,11.95-5.074,11.98-11.841A11.62,11.62,0,0,0,775.341,694.427Zm-29.192-3.821a16.5,16.5,0,0,1,8.9,4.151,15.955,15.955,0,0,1,4.74,8.131c1.875-6.771,6.292-10.793,13.5-12.274A39.909,39.909,0,0,0,746.149,690.605Z" transform="translate(-728.572 -685)" fill="#fff"/><path d="M734.3,702.5a7.541,7.541,0,0,1,7.918-7.8,7.84,7.84,0,1,1-.238,15.679A7.574,7.574,0,0,1,734.3,702.5Zm3.133.089a4.822,4.822,0,0,0,4.7,4.676,4.728,4.728,0,1,0-.114-9.455A4.814,4.814,0,0,0,737.43,702.586Z" transform="translate(-726.434 -681.378)" fill="#fff"/><path d="M764.55,710.373a7.841,7.841,0,1,1,8.1-7.822A8.008,8.008,0,0,1,764.55,710.373Zm4.7-7.784a4.59,4.59,0,1,0-4.6,4.674A4.571,4.571,0,0,0,769.251,702.589Z" transform="translate(-718.073 -681.378)" fill="#fff"/><path d="M743.552,701.164a2.949,2.949,0,0,1-2.829,2.917,3.159,3.159,0,0,1-2.849-2.968,3.128,3.128,0,0,1,2.806-2.821A2.95,2.95,0,0,1,743.552,701.164Z" transform="translate(-725.098 -680.036)" fill="#fff"/><path d="M763.246,698.284a2.9,2.9,0,0,1-.092,5.8,2.9,2.9,0,0,1,.092-5.8Z" transform="translate(-716.652 -680.038)" fill="#fff"/></g></svg>