<svg xmlns="http://www.w3.org/2000/svg" viewBox="0 0 1280 353.72"><defs><style>.cls-1{fill:#83d3ac;}</style></defs><title>Layer 3</title><g id="Layer_2" data-name="Layer 2"><g id="Layer_1-2" data-name="Layer 1"><path class="cls-1" d="M1280,353.72V234.31a425,425,0,0,1-34.44-27.1l-7.17-33.65a.66.66,0,0,0-1.3,0l-4.62,21.69q-4.73-4.47-9.31-9.1l-2.68-12.59a.66.66,0,0,0-1.3,0l-1.48,6.95q-3-3.19-6-6.45l-5.61-26.33a.67.67,0,0,0-1.31,0l-3.16,14.87c-.62-.72-1.24-1.43-1.85-2.15-18-21.57-33.91-45.06-53.79-64.77l-3.85-18.07a.66.66,0,0,0-.79-.51.69.69,0,0,0-.52.51l-2.34,11-.29-.27c-14.88-13.24-33.68-24.66-53.82-29.42l-7-33.06a.67.67,0,0,0-1.31,0l-6.57,30.83c-.62,0-1.24-.06-1.85-.08l-1.66-7.76a.66.66,0,0,0-.79-.51.64.64,0,0,0-.51.51L1063,56.56q-2.85.06-5.7.33L1053,36.77a.68.68,0,0,0-.79-.52.69.69,0,0,0-.52.52L1047,58.59c-16.66,3.9-31.54,12.83-44.91,23.64l-2-9.61a.67.67,0,0,0-.8-.51.7.7,0,0,0-.51.51l-3.23,15.19-2.22,2-5-23.46a.68.68,0,0,0-.79-.52.69.69,0,0,0-.52.52l-7.94,37.28c-28.16,28.71-55.1,57.91-89.93,78.79-36.69,22-81.88,32.53-125,25.12-47.71-8.2-82.34-41.1-123.37-63.94C609.67,126.3,574.3,113,539.35,113a124.31,124.31,0,0,0-34.72,4.8C472.45,127.16,445.25,150,417.94,171l-2-9.44a.68.68,0,0,0-.79-.52.66.66,0,0,0-.51.52l-3.05,14.3c-1.68,1.27-3.37,2.53-5.05,3.77L404,167.79a.66.66,0,0,0-.79-.51.64.64,0,0,0-.51.51L399,185.06c-4.52,3.17-9.07,6.2-13.67,9l-3.92-18.4a.67.67,0,0,0-.8-.51.67.67,0,0,0-.51.51L374.93,200c-15.77,8.31-32.37,13.71-50.64,13.71h-1.6a89.85,89.85,0,0,1-14.13-1.36l-7.36-34.55a.67.67,0,0,0-.8-.51.67.67,0,0,0-.51.51l-6.5,30.53a115.47,115.47,0,0,1-27.27-14.26l-7.35-34.49a.66.66,0,0,0-1.3,0l-5.06,23.72q-2.73-2.4-5.4-4.94l-3.15-14.78a.66.66,0,0,0-1.3,0l-1.83,8.56C226,156.9,213.07,139.09,201.8,121.64c-4.13-6.41-8.31-12.93-12.57-19.45l-6.9-32.37a.66.66,0,0,0-.79-.51.64.64,0,0,0-.51.51l-3.27,15.32q-1.72-2.49-3.49-5l-3.5-16.41a.66.66,0,0,0-.79-.51.65.65,0,0,0-.51.51l-1.64,7.67c-4.73-6.24-9.66-12.26-14.82-18l-6.46-30.31a.66.66,0,0,0-.79-.51.69.69,0,0,0-.52.51l-3.92,18.42a146.94,146.94,0,0,0-16.39-13.24L119,.53a.67.67,0,0,0-.8-.51.67.67,0,0,0-.51.51l-4.4,20.67A108.9,108.9,0,0,0,92,12.42,103.32,103.32,0,0,0,63.11,8.36h0C41.43,8.36,19.89,14.87,0,25.58V353.72Z"/></g></g></svg>